<svg width="30" height="31" viewBox="0 0 30 31" fill="none" xmlns="http://www.w3.org/2000/svg">
    <path fill-rule="evenodd" clip-rule="evenodd" d="M15.552 26.722H7.62153C4.70849 26.722 2.4737 25.6144 3.10849 21.1567L3.84762 15.1156C4.23892 12.8913 5.58675 12.04 6.76936 12.04H16.4389C17.6389 12.04 18.9085 12.9554 19.3607 15.1156L20.0998 21.1567C20.6389 25.111 18.465 26.722 15.552 26.722Z" stroke="#082933" stroke-width="1.5" stroke-linecap="round" stroke-linejoin="round"/>
    <path d="M15.6824 11.8204C15.6824 9.43437 13.8448 7.50004 11.578 7.50004V7.50004C10.4865 7.49521 9.43806 7.94824 8.66458 8.75899C7.8911 9.56975 7.4563 10.6714 7.4563 11.8204V11.8204" stroke="#082933" stroke-width="1.5" stroke-linecap="round" stroke-linejoin="round"/>
    <path d="M14.3954 16.3237H14.3519" stroke="#082933" stroke-width="1.5" stroke-linecap="round" stroke-linejoin="round"/>
    <path d="M8.8563 16.3237H8.81282" stroke="#082933" stroke-width="1.5" stroke-linecap="round" stroke-linejoin="round"/>
</svg>
