<svg width="122" height="45" viewBox="0 0 122 45" fill="none" xmlns="http://www.w3.org/2000/svg">
    <path d="M22.0484 15.5H12.2544C12.2544 17.0268 13.4921 18.2645 15.0188 18.2645H18.1782L12.2544 26.7948V29.3618H19.284C20.8107 29.3618 22.0484 28.1241 22.0484 26.5973H16.0851L22.0484 18.067V15.5Z" fill="#111029"/>
    <path d="M31.1958 23.7736C31.1958 27.6044 33.7036 29.5 36.9222 29.5C40.121 29.5 42.8065 27.6044 42.8065 23.7736V15.5C40.9417 15.5 39.4299 17.0117 39.4299 18.8766V23.7934C39.4299 25.4323 38.5809 26.3801 36.9814 26.3801C35.382 26.3801 34.5724 25.4323 34.5724 23.7934V18.8766C34.5724 17.0118 33.0606 15.5 31.1958 15.5V23.7736Z" fill="#111029"/>
    <path d="M52.1785 29.3618C54.0433 29.3618 55.5551 27.85 55.5551 25.9852V21.0289L58.675 29.3618H61.3999L64.5001 21.0487V25.9852C64.5001 27.85 66.0118 29.3618 67.8767 29.3618V15.5H63.9077L60.0572 25.0966L56.1672 15.5H52.1785V29.3618Z" fill="#111029"/>
    <path d="M85.9348 26.9133C86.4305 28.3769 87.8039 29.3618 89.3493 29.3618H90.3382L85.3226 15.5H81.4129L76.3974 29.3618H77.3468C78.8921 29.3618 80.2655 28.3769 80.7613 26.9133H85.9348ZM85.0659 24.3068H81.6499L83.348 19.232L85.0659 24.3068Z" fill="#111029"/>
    <path d="M106.191 20.0021C106.191 21.0882 105.599 21.7398 104.335 21.7398H102.242V18.3039H104.335C105.599 18.3039 106.191 18.9753 106.191 20.0021ZM98.8655 15.5V29.3618H102.242V24.1291H103.052L104.096 26.0238C105.23 28.0829 107.395 29.3618 109.746 29.3618L106.547 23.8724C108.679 23.2405 109.627 21.6016 109.627 19.8639C109.627 17.4549 107.929 15.5 104.533 15.5H98.8655Z" fill="#111029"/>
</svg>
